PathFileType	4	(X/Y/Z)	C:\Users\Basilio\Documents\Thesis Gigler\squatting_fais\c3dfiles\038\SJ_pre2\markers_experimental.trc
DataRate	CameraRate	NumFrames	NumMarkers	Units	OrigDataRate	OrigDataStartFrame	OrigNumFrames
200.000000	200.000000	4	61	mm	200.000000	463	1854
Frame#	Time	FHD			LBHD			RBHD			C7			T10			LSHO			LUUPA			LMUPA			LDUPA			LLEP			LMEP			LRAD			LUL			LRFIN			RSHO			RUPA1			RMUPA			RDUPA			RLEP			RMEP			RRAD			RUL			RUFIN			LASI			RASI			USACR			LSACR			RSACR			LTHI1			LTHI2			LTHI3			LTHI4			LLFC			LMFC			LTIB1			LTIB2			LTIB3			LTIB4			LLMAL			LMMAL			LHEE			LMT1			LMT2			LMT5			RTHI			RTHI2			RTHI3			RTHI4			RLFC			RMFC			RTIB1			RTIB2			RTIB3			RTIB4			RLMAL			RMMAL			RHEE			RMT1			RMT2			RMT5			CLAV			
		X1	Y1	Z1	X2	Y2	Z2	X3	Y3	Z3	X4	Y4	Z4	X5	Y5	Z5	X6	Y6	Z6	X7	Y7	Z7	X8	Y8	Z8	X9	Y9	Z9	X10	Y10	Z10	X11	Y11	Z11	X12	Y12	Z12	X13	Y13	Z13	X14	Y14	Z14	X15	Y15	Z15	X16	Y16	Z16	X17	Y17	Z17	X18	Y18	Z18	X19	Y19	Z19	X20	Y20	Z20	X21	Y21	Z21	X22	Y22	Z22	X23	Y23	Z23	X24	Y24	Z24	X25	Y25	Z25	X26	Y26	Z26	X27	Y27	Z27	X28	Y28	Z28	X29	Y29	Z29	X30	Y30	Z30	X31	Y31	Z31	X32	Y32	Z32	X33	Y33	Z33	X34	Y34	Z34	X35	Y35	Z35	X36	Y36	Z36	X37	Y37	Z37	X38	Y38	Z38	X39	Y39	Z39	X40	Y40	Z40	X41	Y41	Z41	X42	Y42	Z42	X43	Y43	Z43	X44	Y44	Z44	X45	Y45	Z45	X46	Y46	Z46	X47	Y47	Z47	X48	Y48	Z48	X49	Y49	Z49	X50	Y50	Z50	X51	Y51	Z51	X52	Y52	Z52	X53	Y53	Z53	X54	Y54	Z54	X55	Y55	Z55	X56	Y56	Z56	X57	Y57	Z57	X58	Y58	Z58	X59	Y59	Z59	X60	Y60	Z60	X61	Y61	Z61	

464	2.315	-217.7929382324219	1753.63623046875	-931.165710449219	-349.8861389160157	1657.8583984375	-994.5056762695315	-341.7080688476563	1648.775634765625	-849.0402832031252	-381.8910217285157	1518.510864257813	-918.065368652344	-434.2363586425782	1237.341552734375	-913.7539672851565	-297.5380249023438	1504.53076171875	-1095.278442382813	-339.8517761230469	1339.539184570313	-1270.03955078125	-300.2888183593751	1309.12744140625	-1256.484985351563	-325.3958129882813	1278.703857421875	-1301.831176757813	-313.7429199218751	1216.013305664063	-1318.386840820313	-393.9729003906251	1196.348022460938	-1306.050659179688	-337.5115966796876	982.7585449218752	-1140.012084960938	-282.7883300781251	953.6221313476565	-1178.345458984375	-311.1966857910157	979.0786743164065	-1075.22265625	-274.1481628417969	1494.576049804688	-761.6078491210939	-275.0772094726563	1338.049438476563	-596.3878784179689	-258.9255676269532	1294.586059570313	-612.6123046875001	-275.6290893554688	1281.02490234375	-556.4847412109376	-269.6006164550782	1208.144165039063	-531.2108154296876	-352.9299926757813	1196.6357421875	-526.1171875000001	-316.7632141113282	979.2774658203127	-682.5452880859376	-259.2149963378907	950.3177490234377	-651.8657836914064	-285.4879150390626	968.8401489257815	-745.1362304687501	-296.6899719238282	1022.975769042969	-1031.709716796875	-293.3040771484376	1035.749633789063	-781.5469970703127	-457.1918945312501	1099.680419921875	-907.3687133789065	-474.3653869628907	1070.119018554688	-933.476013183594	-470.7586364746095	1071.298828125	-876.2940673828127	-347.7815551757813	720.5866699218751	-1123.442016601563	-314.8684082031251	641.8438720703126	-1126.67724609375	-268.5961608886719	647.0249023437501	-1107.8837890625	-340.2365417480469	589.9055175781251	-1112.696411132813	-334.9272766113282	531.8525390625001	-1112.280395507813	-307.5335388183594	507.5842285156251	-999.5451660156252	-309.9518127441407	335.1464538574219	-1071.190307617188	-367.1159057617188	306.8190917968751	-1134.409057617188	-330.0126037597657	294.9968872070313	-1111.097412109375	-346.0222473144532	213.567611694336	-1090.046630859375	-446.4066467285157	87.14427947998048	-1114.396118164063	-397.3868103027345	96.15129089355472	-1048.6572265625	-485.3849182128907	43.88290786743165	-1061.405395507813	-275.5339965820313	47.75835800170899	-1094.529907226563	-280.1313781738282	48.9965171813965	-1145.12939453125	-328.2510070800782	29.86800575256348	-1185.535888671875	-358.7000427246094	778.1668090820315	-704.1651000976564	-322.2654418945313	722.0178833007814	-694.4532470703126	-289.4088134765626	723.4385375976564	-697.4493408203126	-350.8613586425782	641.6904296875001	-710.2797241210939	-333.8514404296876	508.6945190429689	-714.1794433593751	-321.3546447753907	503.0132446289064	-831.4993286132815	-302.1935729980469	329.0080566406251	-727.1477661132814	-390.0550537109376	258.4718627929688	-696.1073608398439	-342.3147277832032	256.7993164062501	-701.2905273437501	-334.0697631835938	203.5515899658204	-727.4277954101564	-414.9217529296876	92.51004028320314	-703.2572021484376	-373.2101440429688	92.0847625732422	-776.6587524414065	-463.0601806640626	41.25278472900391	-772.0025024414065	-251.4835357666016	47.91728973388673	-715.2466430664064	-264.7687072753907	53.34931564331056	-670.1389160156251	-316.1023254394532	34.39434051513673	-634.3269042968751	-248.0260314941407	1461.619995117188	-930.276062011719	
465	2.32	-217.3481903076172	1753.055786132813	-931.1939086914065	-349.5501708984376	1657.419067382813	-994.664489746094	-341.2576599121094	1648.408813476563	-849.3123168945315	-381.7425231933594	1518.283569335938	-918.2612915039065	-434.648406982422	1237.151000976563	-913.6885986328127	-297.1484680175782	1504.112548828125	-1095.34912109375	-339.8455505371094	1339.239013671875	-1270.138793945313	-300.3598632812501	1308.631469726563	-1256.592529296875	-325.4644775390626	1278.292114257813	-1301.95361328125	-314.0136718750001	1215.690551757813	-1318.535522460938	-393.6499938964845	1195.3701171875	-1306.240600585938	-338.1854248046876	982.685974121094	-1139.920532226563	-283.4585571289063	953.2732543945315	-1178.220458984375	-311.8554382324219	978.860534667969	-1075.183715820313	-273.9801330566407	1494.1650390625	-761.7061767578126	-275.0626525878907	1337.652221679688	-596.3773193359376	-259.0572204589844	1294.340698242188	-612.6824340820314	-275.8202819824219	1280.543090820313	-557.3443603515626	-269.9451904296876	1207.791625976563	-531.1760253906251	-353.2311401367188	1196.5166015625	-526.0623168945314	-317.4954223632813	979.0235595703127	-682.4100341796876	-259.9407653808594	950.047546386719	-651.5970458984376	-286.2069702148438	968.5892333984377	-745.0770874023439	-297.6028442382813	1022.506774902344	-1031.515747070313	-294.0513000488282	1035.300415039063	-781.5959472656252	-457.8699645996095	1099.60205078125	-907.296081542969	-475.0910949707032	1070.03955078125	-933.4217529296877	-471.5020751953126	1071.195068359375	-876.2178955078127	-347.9270629882813	720.4408569335939	-1123.553588867188	-314.8171997070313	641.7560424804689	-1126.828369140625	-268.6121826171876	647.0791625976564	-1108.021362304688	-340.0914916992188	589.7298583984376	-1112.823974609375	-334.7173156738282	531.7778930664064	-1112.556518554688	-307.4558410644532	507.4626770019532	-999.8137817382815	-309.7872009277344	335.0823974609376	-1071.268188476563	-366.9646301269532	306.7307739257813	-1134.578491210938	-329.9329223632813	294.9319458007813	-1111.123901367188	-345.8400878906251	213.1633453369141	-1090.018798828125	-446.3701782226564	87.10653686523439	-1114.415893554688	-397.3684997558595	96.1923522949219	-1048.690551757813	-485.3747863769532	43.84040832519532	-1061.442626953125	-275.4222717285157	47.83049011230469	-1094.532470703125	-279.7094421386719	49.46744918823244	-1145.305786132813	-328.2124328613282	29.88739395141602	-1185.537963867188	-359.1029968261719	777.861755371094	-704.0256347656251	-322.5234680175782	721.9100952148439	-694.1563720703126	-289.5062561035157	723.2888183593751	-697.2077636718751	-350.9315795898438	641.4027099609376	-709.7630615234376	-333.3025207519532	508.5537719726564	-713.7887573242189	-320.8591003417969	502.8815917968751	-831.0781250000002	-301.8772888183594	328.7178344726563	-726.9543457031251	-389.3612060546876	258.6912841796876	-695.7023315429689	-342.0925292968751	256.6076660156251	-701.1385498046876	-333.8465881347657	203.4031677246094	-727.3968505859376	-414.8750610351564	92.52595520019533	-703.2615356445314	-373.1525878906251	92.03623962402345	-776.6255493164065	-463.0215148925782	41.19709014892579	-772.0034179687502	-251.5047760009766	47.94511413574219	-715.2226562500001	-264.7554931640626	53.29441070556642	-670.1674194335939	-316.1237792968751	34.42958450317384	-634.3197021484376	-247.8605651855469	1461.124145507813	-930.359313964844	
466	2.325	-216.7427520751954	1752.313720703125	-931.6063232421877	-349.3168640136719	1656.49169921875	-994.830993652344	-340.9570617675782	1647.841674804688	-849.4390869140627	-381.4109497070313	1517.960327148438	-918.3426513671877	-434.9323120117189	1236.95703125	-913.5712890625002	-297.0269775390626	1503.816772460938	-1095.492431640625	-339.8282470703126	1338.879516601563	-1270.3212890625	-300.3183288574219	1308.155395507813	-1256.744506835938	-325.5910339355469	1277.867309570313	-1302.053344726563	-314.2163085937501	1215.365234375	-1318.689086914063	-393.9313354492189	1195.08740234375	-1306.315673828125	-339.1107482910157	982.486022949219	-1139.823364257813	-283.8276672363282	952.6814575195315	-1177.9921875	-312.3778076171876	978.551940917969	-1075.023315429688	-273.7413635253907	1493.889892578125	-761.7719116210939	-275.0997009277344	1337.302978515625	-596.3773803710939	-259.2562255859376	1294.033325195313	-612.7528686523439	-275.9881591796876	1280.229614257813	-557.3497314453126	-270.2160949707032	1207.537719726563	-531.2223510742189	-353.5021057128907	1196.344116210938	-526.0018920898439	-318.1842651367188	978.609313964844	-682.3909912109376	-261.1122436523438	949.483093261719	-652.1943969726564	-287.0754394531251	968.3704223632815	-745.0632934570314	-298.2572631835938	1022.116455078125	-1031.366088867188	-294.8327636718751	1034.98828125	-781.4743652343752	-458.6165771484376	1099.421142578125	-907.104919433594	-475.898162841797	1069.837280273438	-933.4296875000002	-472.1206054687501	1070.952270507813	-876.1336669921877	-348.0759887695313	720.2655029296876	-1123.72802734375	-314.7991333007813	641.7172241210939	-1127.030639648438	-268.6555480957032	647.0720214843751	-1108.116577148438	-339.9734497070313	589.5837402343751	-1113.042602539063	-334.4696044921876	531.6920166015626	-1112.845581054688	-307.2867126464844	507.5989379882814	-1000.022277832031	-309.5513610839844	335.0006408691407	-1071.454833984375	-366.8194885253907	306.6727600097657	-1134.708984375	-329.8835754394532	294.8954772949219	-1111.23095703125	-345.7507019042969	213.0796203613282	-1090.040405273438	-446.4620361328126	87.39198303222658	-1114.345336914063	-397.3832397460939	96.16584777832034	-1048.70654296875	-485.3911437988282	43.87602996826173	-1061.414306640625	-277.0524597167969	46.90962600708009	-1094.212036132813	-279.7755126953126	49.51270294189455	-1145.29443359375	-328.1989135742188	29.91789245605469	-1185.52294921875	-359.4728698730469	777.497985839844	-703.8905639648439	-322.7577209472657	721.7712402343751	-693.9384155273439	-289.7370300292969	723.2368164062501	-697.0089721679689	-350.9847412109376	641.1637573242189	-709.5148315429689	-332.7495117187501	508.327362060547	-713.4122924804689	-320.3355712890626	502.671356201172	-830.6650390625002	-301.5855712890626	328.4778747558594	-726.6915283203126	-389.2341918945314	258.4244995117188	-695.5361328125001	-341.8934326171876	256.4557495117188	-701.0543823242189	-333.3070068359376	203.4792938232422	-726.8125610351564	-414.8528747558595	92.49533081054689	-703.2329101562501	-373.1344604492188	91.97949981689455	-776.5828247070315	-463.0584411621095	41.18301391601563	-771.975036621094	-251.5095672607422	47.95280456542969	-715.2622070312501	-264.7741394042969	53.36182785034181	-670.1403198242189	-316.1098022460938	34.43084335327149	-634.3332519531251	-247.7886352539063	1460.513671875	-930.3482055664065	
467	2.33	-216.4216613769532	1752.1240234375	-931.6834106445315	-349.0279235839844	1656.007080078125	-994.9602661132815	-340.6538085937501	1647.336059570313	-849.4993896484377	-381.0864562988282	1517.547485351563	-918.4843750000002	-435.2236938476564	1236.690795898438	-913.5072021484377	-296.6897888183594	1503.243530273438	-1095.590576171875	-339.8783569335938	1338.492553710938	-1270.421142578125	-300.3424682617188	1307.720825195313	-1256.869262695313	-325.6559753417969	1277.661987304688	-1302.163330078125	-314.4075622558594	1214.982788085938	-1318.765380859375	-394.5567016601564	1195.270874023438	-1306.407958984375	-339.7478942871094	982.3100585937502	-1139.801391601563	-284.4038391113282	952.3484497070315	-1177.945068359375	-313.0228576660157	978.2227783203127	-1074.872314453125	-273.5575561523438	1493.352661132813	-761.8258666992189	-275.1060791015626	1336.932495117188	-596.5142211914064	-259.4496459960938	1293.655151367188	-612.8333740234376	-276.0555725097657	1280.078979492188	-557.2420043945314	-270.4900817871094	1207.197143554688	-531.1222534179689	-353.7757568359376	1196.115844726563	-525.9651489257814	-319.0197448730469	978.3987426757815	-682.2877197265626	-261.9169311523438	949.1856079101565	-652.3106689453126	-287.9126586914063	967.9892578125002	-745.0233764648439	-299.1433105468751	1021.758361816406	-1031.2939453125	-295.7765502929688	1034.528198242188	-781.2510986328127	-459.2390747070314	1098.636962890625	-907.0493164062502	-476.7507934570314	1069.65673828125	-933.358825683594	-472.8759155273439	1070.789916992188	-875.9810180664065	-348.2772827148438	720.1029052734376	-1123.78173828125	-314.7591857910157	641.6079101562501	-1127.192138671875	-268.6396789550782	647.1062011718751	-1108.241333007813	-339.7610473632813	589.4489135742189	-1113.329833984375	-334.3121032714844	531.5855712890626	-1113.107055664063	-307.5406188964844	507.0342407226564	-1000.364562988281	-309.2803344726563	334.9187927246094	-1071.607299804688	-366.7363586425782	306.4863281250001	-1134.76708984375	-329.5824584960938	295.1165466308594	-1111.118408203125	-345.6673889160157	212.9705200195313	-1090.149658203125	-446.4414062500001	87.30067443847658	-1114.391967773438	-397.3451538085939	96.13887786865237	-1048.740478515625	-485.3937072753907	43.81484985351563	-1061.466918945313	-277.0494384765626	46.87823486328126	-1094.21337890625	-279.7094116210938	49.50106048583986	-1145.301391601563	-328.2194824218751	29.90832710266114	-1185.530883789063	-359.8039550781251	777.1518554687502	-703.7402343750001	-323.4278259277344	721.2014160156251	-694.3084106445314	-289.9092102050782	723.0457153320314	-696.7256469726564	-350.5998840332032	640.7449951171876	-709.8076782226564	-332.4171752929688	507.8987121582032	-713.1472167968751	-319.9403381347657	502.5565490722657	-830.2696533203127	-301.2707519531251	328.2949218750001	-726.3942871093751	-388.9119262695314	258.2423400878907	-695.2754516601564	-341.6564636230469	256.3463439941407	-700.8775634765626	-333.3901672363282	203.0571289062501	-727.1182250976564	-414.8389282226564	92.42855834960939	-703.1649780273439	-373.1743774414063	92.05757141113283	-776.5878906250002	-463.049285888672	41.14547729492188	-771.9608154296877	-251.5037689208985	47.95087432861329	-715.2584838867189	-264.7717895507813	53.3781089782715	-670.1833496093751	-316.0901794433594	34.42015457153321	-634.3190917968751	-247.6854705810547	1459.946533203125	-930.4100341796877	
